# xmcd
#
# Track frame offsets: 
#        150
#        18675
#        33462
#        50100
#        71627
#        87230
#        105675
#        121987
#        135025
#        151887
#        164075
#        186680
#        200700
#        217112
#        226200
#        236295
#        252600
#        264825
#
# Disc length: 3712 seconds
#
# Revision: 3
# Processed by: cddbd v1.5.2PL0 Copyright (c) Steve Scherf et al.
# Submitted via: ExactAudioCopy v1.0b3
#
DISCID=090e7e12
DTITLE=Various Artist - 幻の名盤解放歌集*ポリドール編　お願い入れて
DYEAR=1993
DGENRE=Japan-Pops
TTITLE0=紫四郎 - 慟哭のギター
TTITLE1=操洋子 [作曲：藤本卓也] - お願い入れて
TTITLE2=操洋子 [作曲：藤本卓也] - 嵐の夜は二度来ない
TTITLE3=西条ロック - 三つで五百円
TTITLE4=沢久美 - ミミの甘い生活
TTITLE5=ミスター・ワイルド - さすらいの一匹狼
TTITLE6=マイガールズ - モーレツのブルース
TTITLE7=香月サコ - 愛かしら恋かしら
TTITLE8=大木伸夫 - 鉄路の男
TTITLE9=みやざきみきお(マリア四郎) - シクラメン・ブルース
TTITLE10=みやざきみきお(マリア四郎) - 海猫
TTITLE11=柴田一幸 - 白馬くん
TTITLE12=中川レオ - 鴨ネギ音頭
TTITLE13=オリジナル・チンドン・ポップス・バンド - 流転
TTITLE14=オリジナル・チンドン・ポップス・バンド - かえり船
TTITLE15=岩本きよみ - 三味線クンパルシータ
TTITLE16=三浦正広とアロハ・ブラザーズ - 私のあなた
TTITLE17=三浦正広とアロハ・ブラザーズ - ラリラリ東京
EXTD=PCD-1515
EXTT0=
EXTT1=
EXTT2=
EXTT3=
EXTT4=
EXTT5=
EXTT6=
EXTT7=
EXTT8=
EXTT9=
EXTT10=
EXTT11=
EXTT12=
EXTT13=
EXTT14=
EXTT15=
EXTT16=
EXTT17=
PLAYORDER=
